<?xml version="1.0" standalone="no"?><!DOCTYPE svg PUBLIC "-//W3C//DTD SVG 1.1//EN" "http://www.w3.org/Graphics/SVG/1.1/DTD/svg11.dtd"><svg t="1603329185375" class="icon" viewBox="0 0 1024 1024" version="1.1" xmlns="http://www.w3.org/2000/svg" p-id="3973" xmlns:xlink="http://www.w3.org/1999/xlink" width="200" height="200"><defs><style type="text/css"></style></defs><path d="M0 0h1024v1024H0z" fill="#FFFFFF" p-id="3974"></path><path d="M298.86464 677.9648l48.49152 48.49152 113.65376-41.8304-120.43264-120.31488-41.71264 113.65376z m0 0" fill="" p-id="3975"></path><path d="M511.104 12.73856c-277.39648 0-501.35552 223.95904-501.35552 501.35552 0 277.39648 223.95904 501.34528 501.35552 501.34528 277.39136 0 501.3504-223.9488 501.3504-501.34528 0-275.66592-223.95904-501.35552-501.3504-501.35552z m-25.04704 696.92928c-1.72544 1.72544-3.33312 1.72544-5.06368 3.328L250.368 796.544c-6.66112 1.72544-13.32736 0-16.65536-3.33312-5.05856-5.05856-6.66112-11.71968-3.328-16.66048l83.53792-230.62016c0-1.73056 1.72544-3.33312 3.328-5.05856l205.57824-208.91136c21.72416 21.71392 41.8304 40.10496 41.8304 40.10496l-162.13504 162.13504c-3.33824 3.33824-3.33824 6.67136-3.33824 9.99936 0 3.33312 1.72544 6.656 3.33824 9.99424 3.32288 1.72544 6.66112 3.328 9.98912 3.328s6.66624-1.72544 9.99936-3.328l162.13504-162.13504 51.82464 50.0992-162.14016 162.25792a13.04576 13.04576 0 0 0 0 18.38592c1.72544 1.73568 6.66112 3.32288 9.99936 3.32288 3.328 0 6.656-1.72032 9.99424-3.32288l162.14528-162.13504 40.09472 40.09984-210.5088 208.90112z m290.8416-290.8416l-65.16224 65.152-170.52672-170.40384L606.3616 248.4224c23.4496-23.44448 61.81888-23.44448 83.53792 0l85.26336 85.26336a59.05408 59.05408 0 0 1 1.73568 85.14048z m0 0" fill="" p-id="3976"></path></svg>