<?xml version="1.0" standalone="no"?><!DOCTYPE svg PUBLIC "-//W3C//DTD SVG 1.1//EN" "http://www.w3.org/Graphics/SVG/1.1/DTD/svg11.dtd"><svg t="1603852684834" class="icon" viewBox="0 0 1024 1024" version="1.1" xmlns="http://www.w3.org/2000/svg" p-id="3268" xmlns:xlink="http://www.w3.org/1999/xlink" width="200" height="200"><defs><style type="text/css"></style></defs><path d="M64.064 586.24V420.992C64.064 400.512 78.4 384 96.064 384s32 16.512 32 36.864v165.44c0 20.352-14.336 36.864-32 36.864S64.064 606.72 64.064 586.304zM875.008 1024H213.184C130.944 1024 64.064 959.168 64.064 879.424v-74.24c0-22.272 18.624-40.32 41.6-40.384 23.04 0 41.728 18.112 41.728 40.384v74.24c0 35.2 29.44 63.744 65.728 63.744h661.888c36.288 0 65.728-28.608 65.728-63.744V144.576c0-35.2-29.44-63.744-65.728-63.744H213.184c-36.224 0-65.728 28.608-65.728 63.744v23.872a41.024 41.024 0 0 1-41.6 40.384A41.024 41.024 0 0 1 64.064 168.448v-23.872C64.064 64.832 130.944 0 213.184 0H874.944C957.184 0 1024.064 64.832 1024.064 144.576v734.848C1024.064 959.168 957.184 1024 875.008 1024zM788.992 332.736H430.144c-23.04 0-41.792-17.152-41.792-38.4 0-21.12 18.752-38.336 41.792-38.336h358.848c23.04 0 41.792 17.152 41.792 38.4 0 21.12-18.752 38.336-41.792 38.336z m1.28 218.24H431.424c-23.04 0-41.728-17.216-41.728-38.4 0-21.12 18.688-38.4 41.728-38.4h358.848c23.04 0 41.792 17.28 41.792 38.4 0 21.184-18.688 38.4-41.792 38.4z m0 217.024H431.424c-23.04 0-41.728-17.152-41.728-38.4 0-21.12 18.688-38.336 41.728-38.336h358.848c23.04 0 41.792 17.152 41.792 38.4 0 21.12-18.688 38.336-41.792 38.336z m-576.128-32.896H45.76c-23.04 0-41.792-17.152-41.792-38.4 0-21.12 18.688-38.336 41.792-38.336h168.32c23.104 0 41.792 17.216 41.792 38.4 0 21.184-18.688 38.4-41.728 38.4z m-3.904-395.648H41.856c-23.04 0-41.792-17.216-41.792-38.4 0-21.12 18.688-38.4 41.792-38.4h168.32c23.104 0 41.792 17.28 41.792 38.4 0 21.184-18.688 38.4-41.728 38.4z" p-id="3269"></path></svg>