<?xml version="1.0" standalone="no"?><!DOCTYPE svg PUBLIC "-//W3C//DTD SVG 1.1//EN" "http://www.w3.org/Graphics/SVG/1.1/DTD/svg11.dtd"><svg t="1603350511593" class="icon" viewBox="0 0 1654 1024" version="1.1" xmlns="http://www.w3.org/2000/svg" p-id="2440" xmlns:xlink="http://www.w3.org/1999/xlink" width="323.046875" height="200"><defs><style type="text/css"></style></defs><path d="M795.096615 254.897231c-100.667077 0-188.809846 81.762462-188.809846 188.809846 0 100.667077 81.841231 188.809846 188.809846 188.809846 107.047385 0 188.809846-81.841231 188.809847-188.809846 0-106.968615-88.064-188.809846-188.809847-188.809846zM788.795077 3.150769C474.190769 3.150769 197.238154 154.151385 27.254154 431.104c176.285538 276.952615 453.159385 453.159385 761.540923 453.159385 314.683077 0 591.635692-182.508308 761.540923-459.460923C1380.430769 147.928615 1103.556923 3.150769 788.795077 3.150769z m6.301538 755.239385A322.323692 322.323692 0 0 1 474.190769 437.405538a322.323692 322.323692 0 0 1 320.984616-320.984615c176.285538 0 314.683077 151.079385 314.683077 327.286154a311.611077 311.611077 0 0 1-314.683077 314.683077z" p-id="2441"></path></svg>