<?xml version="1.0" standalone="no"?><!DOCTYPE svg PUBLIC "-//W3C//DTD SVG 1.1//EN" "http://www.w3.org/Graphics/SVG/1.1/DTD/svg11.dtd"><svg t="1603004799627" class="icon" viewBox="0 0 1024 1024" version="1.1" xmlns="http://www.w3.org/2000/svg" p-id="4383" xmlns:xlink="http://www.w3.org/1999/xlink" width="200" height="200"><defs><style type="text/css"></style></defs><path d="M298.285714 772.571429q-4.571429 5.142857-11.428571-1.714286-7.428571-6.285714-2.285714-10.857143 4.571429-5.142857 11.428571 1.714286 6.857143 6.285714 2.285714 10.857143zm-24-34.857143q5.142857 6.857143 0 10.857143-4.571429 3.428571-9.714286-4t0-10.285714q5.142857-4 9.714286 3.428571zm-34.857143-34.285714q-2.857143 4-7.428571 1.142857-5.714286-2.857143-4-6.857143 1.714286-2.857143 7.428571-1.142857 5.714286 2.857143 4 6.857143zm17.714286 19.428571q-3.428571 4-9.142857-1.714286-5.142857-6.285714-1.142857-9.142857 3.428571-3.428571 9.142857 1.714286 5.142857 6.285714 1.142857 9.142857zm73.714286 64q-2.285714 6.857143-10.857143 3.428571-9.714286-2.285714-7.428571-8.571429t10.857143-4q9.142857 2.857143 7.428571 9.142857zm36 2.857143q0 6.285714-9.142857 6.285714-9.714286 1.142857-9.714286-6.285714 0-6.285714 9.142857-6.285714 9.714286-1.142857 9.714286 6.285714zm33.142857-5.714286q1.142857 5.714286-8 8t-10.285714-4.571429 8-8.571429q9.142857-1.142857 10.285714 5.142857zm550.857143-546.285714l0 548.571429q0 68-48.285714 116.285714t-116.285714 48.285714l-128 0q-9.142857 0-14-0.571429t-11.142857-2.857143-9.142857-8.285714-2.857143-15.714286l0-136.571429q0-55.428571-29.714286-81.142857 32.571429-3.428571 58.571429-10.285714t53.714286-22.285714 46.285714-38 30.285714-60 11.714286-86q0-69.142857-45.142857-117.714286 21.142857-52-4.571429-116.571429-16-5.142857-46.285714 6.285714t-52.571429 25.142857l-21.714286 13.714286q-53.142857-14.857143-109.714286-14.857143t-109.714286 14.857143q-9.142857-6.285714-24.285714-15.428571t-47.714286-22-49.142857-7.714286q-25.142857 64.571429-4 116.571429-45.142857 48.571429-45.142857 117.714286 0 48.571429 11.714286 85.714286t30 60 46 38.285714 53.714286 22.285714 58.571429 10.285714q-22.857143 20.571429-28 58.857143-12 5.714286-25.714286 8.571429t-32.571429 2.857143-37.428571-12.285714-31.714286-35.714286q-10.857143-18.285714-27.714286-29.714286t-28.285714-13.714286l-11.428571-1.714286q-12 0-16.571429 2.571429t-2.857143 6.571429 5.142857 8 7.428571 6.857143l4 2.857143q12.571429 5.714286 24.857143 21.714286t18 29.142857l5.714286 13.142857q7.428571 21.714286 25.142857 35.142857t38.285714 17.142857 39.714286 4 31.714286-2l13.142857-2.285714q0 21.714286 2.857143 58.857143t2.857143 38.857143q0 12.571429-6.285714 19.142857t-12.571429 7.428571-18.857143 0.857143l-128 0q-68 0-116.285714-48.285714t-48.285714-116.285714l0-548.571429q0-68 48.285714-116.285714t116.285714-48.285714l548.571429 0q68 0 116.285714 48.285714t48.285714 116.285714z" p-id="4384"></path></svg>