<?xml version="1.0" standalone="no"?><!DOCTYPE svg PUBLIC "-//W3C//DTD SVG 1.1//EN" "http://www.w3.org/Graphics/SVG/1.1/DTD/svg11.dtd"><svg t="1602999558450" class="icon" viewBox="0 0 1024 1024" version="1.1" xmlns="http://www.w3.org/2000/svg" p-id="1515" xmlns:xlink="http://www.w3.org/1999/xlink" width="200" height="200"><defs><style type="text/css"></style></defs><path d="M275.712 566.357333l584.533333-140.032c-32.341333-45.952-179.413333-254.421333-193.578666-274.218666-16-22.357333 0.341333-32.810667 26.325333-37.12 25.941333-4.437333 249.6-41.984 268.714667-44.757334 16.085333-2.346667 29.44-7.552 51.712 13.098667A135.68 135.68 0 0 0 888.277333 0.341333H136.405333A135.509333 135.509333 0 0 0 3.157333 110.506667l272.554667 455.850666z" fill="" p-id="1516"></path><path d="M970.112 122.965333c-8.789333 1.877333-203.306667 37.077333-215.253333 38.698667-11.946667 1.578667-8.021333 8.277333-3.157334 15.146667l171.136 234.752L1024 386.688V167.765333c-14.08-17.92-24.277333-31.104-26.709333-34.602666-10.88-14.677333-18.432-12.245333-27.178667-10.197334M1024 645.504c-49.706667-68.181333-103.936-142.336-109.098667-149.674667-7.082667-10.24-10.88-12.16-27.648-6.784L317.397333 637.397333s174.933333 303.104 188.330667 322.304c13.44 19.456 21.674667 17.834667 32.128 13.397334 7.722667-3.413333 332.629333-113.237333 486.101333-165.205334v-162.261333l0.042667-0.128z m0-100.266667v-85.674666l-53.333333 14.250666L1024 545.237333m-349.824 478.421334h214.144a135.68 135.68 0 0 0 135.296-125.269334 84078.933333 84078.933333 0 0 1-349.482667 125.269334M236.672 658.346667L0 720v167.936c0.725333 74.965333 61.482667 135.765333 136.32 135.765333h306.944c-40.149333-65.578667-149.461333-262.528-206.208-365.354666m-47.786667-88.277334L0.725333 244.437333v388.181334l184.661334-44.074667c15.061333-3.498667 11.477333-5.461333 4.053333-18.432" fill="" p-id="1517"></path><path d="M966.186667 467.584L1024 451.882667v26.88l-39.637333 13.269333-18.176-24.448z" fill="" p-id="1518"></path></svg>