<?xml version="1.0" standalone="no"?><!DOCTYPE svg PUBLIC "-//W3C//DTD SVG 1.1//EN" "http://www.w3.org/Graphics/SVG/1.1/DTD/svg11.dtd"><svg t="1603349922685" class="icon" viewBox="0 0 1024 1024" version="1.1" xmlns="http://www.w3.org/2000/svg" p-id="1712" xmlns:xlink="http://www.w3.org/1999/xlink" width="200" height="200"><defs><style type="text/css"></style></defs><path d="M952.149333 410.453333h-280.814933C780.151467 21.333333 596.343467 1.4336 596.343467 1.4336c-77.824 0-61.713067 59.665067-67.549867 69.597867 0 190.293333-208.6912 339.421867-208.6912 339.421866v539.648c0 53.316267 74.922667 72.465067 104.311467 72.465067h421.819733c39.7312 0 72.123733-100.829867 72.123733-100.829867 104.209067-343.688533 104.209067-445.952 104.209067-445.952-0.034133-70.9632-70.417067-65.3312-70.417067-65.3312zM204.8 410.624H36.727467c-34.747733 0-35.293867 33.006933-35.293867 33.006933L36.181333 987.9552c0 34.6112 35.874133 34.6112 35.874134 34.6112h145.476266c30.3104 0 30.037333-22.903467 30.037334-22.903467V451.8912C247.534933 410.112 204.8 410.624 204.8 410.624z" fill="" p-id="1713"></path></svg>