<?xml version="1.0" standalone="no"?><!DOCTYPE svg PUBLIC "-//W3C//DTD SVG 1.1//EN" "http://www.w3.org/Graphics/SVG/1.1/DTD/svg11.dtd"><svg t="1603007855958" class="icon" viewBox="0 0 1024 1024" version="1.1" xmlns="http://www.w3.org/2000/svg" p-id="2513" xmlns:xlink="http://www.w3.org/1999/xlink" width="200" height="200"><defs><style type="text/css"></style></defs><path d="M887.85832 64.549132 136.14168 64.549132c-39.540552 0-71.591525 32.051997-71.591525 71.590502l0 751.718687c0 39.538505 32.051997 71.591525 71.591525 71.591525l751.71664 0c39.538505 0 71.592548-32.05302 71.592548-71.591525L959.450868 136.139633C959.449845 96.601128 927.396825 64.549132 887.85832 64.549132zM862.687034 644.674719l0 5.110391 0 4.786003-0.860601 5.754051-1.236154 9.869788-1.720178 8.9263-2.636037 8.067746-0.967024 3.307326-1.828648 3.925403-1.560542 2.77009-2.043542 3.413749-1.829671 2.125407-2.311649 2.769067-2.043542 2.204202-2.204202 1.936095-2.636037 1.157359-2.367931 1.155313-1.934049 0.644683-1.694595 0-1.264806 0-1.908466-0.644683-3.631714-1.775436-1.664919-1.182942-1.722224-1.290389-1.910513-1.694595-1.908466-1.908466-3.173273-3.496637-3.765767-5.000897-2.957355-5.109368-2.957355-4.14132-2.877537-4.787026-4.060479-8.496511-4.570085-8.846482-0.537236-0.297782-0.754177 0-1.88186 1.37123-1.075495 2.339278-1.774413 2.851954-3.120061 8.631588-4.679579 12.235672-6.02318 14.653745-4.516874 7.341199-4.76042 7.635911-5.621021 8.606005-5.969968 8.443299-3.064802 3.818979-3.710508 4.142343-8.525164 8.389064 0.754177 0.75213 1.154289 1.182942 4.249791 2.52859 17.748223 8.497535 7.745405 4.356214 7.366781 4.247744 7.313569 5.324262 6.508227 5.539156 3.174296 2.446725 2.366907 2.877537 2.418073 3.279696 2.044566 3.63069 1.077541 2.984984 1.342578 3.603061 0.539282 3.065825 0.64366 3.629667-0.64366 2.447748 0 2.419096-0.539282 2.581802-1.342578 2.312672-0.539282 1.827625-1.182942 2.205225-3.226484 4.383844-2.956332 3.523243-2.312672 2.63399-1.936095 1.936095-4.89345 3.603061-5.54018 3.092431-5.915733 2.984984-6.293333 2.849908-7.098675 2.743484-3.764744 1.181919-3.38919 0.969071-8.175193 1.908466-8.498558 1.801019-8.496511 1.829671-9.250688 1.479701-9.573029 0.402159-9.78997 1.182942-9.680477 0-10.218736 0-10.487865 0-10.970866-0.644683-10.219759-0.940418-10.970866-1.479701-10.917654-1.183965-11.509125-1.612731-11.134595-2.743484L592.539314 853.880461l-10.81123-3.065825-11.078313-3.926426-10.862395-3.307326-5.702885-1.909489-5.109368-1.828648-3.225461-1.237177-3.174296-0.644683-4.142343 0-4.89345 0-10.431583-0.75213-5.298679-0.538259-6.80294-0.751107-4.357238 3.924379-5.969968 3.738138-8.066723 3.952009-8.928347 4.894474-5.431709 2.63399-5.647627 2.125407-12.531408 5.109368-6.80294 1.693572-7.125281 1.936095-9.895371 1.882883-6.185886 0.537236-6.562463 0.537236-6.830569 0.754177-7.959276 0.322341-7.637957 0-7.959276 0-16.914228 0-18.3663-0.322341-17.801435-1.828648-9.035794-1.238201-8.712429-1.290389-8.497535-1.291412-8.497535-1.693572-7.879458-2.555196-7.878434-1.801019-7.099698-2.877537-6.722098-2.63399-6.239098-3.012613-5.431709-3.28072-5.432733-3.926426-1.828648-1.935072-2.420119-2.312672-1.829671-2.042519-1.666966-2.312672-1.50733-2.365884-1.182942-2.312672-1.694595-5.001921-0.618077-2.555196-0.754177-2.876514 0-2.636037 0.754177-2.983961 0-2.986007 0.618077-2.983961 0-1.802042 0-4.140297 0.295735-3.201925 1.39886-3.629667 1.182942-3.603061 2.153036-4.355191 1.558495-1.694595 1.291412-1.908466 3.387144-4.14132 2.689249-2.152013 2.52859-1.478677 2.341325-1.908466 3.736091-1.183965 2.958378-1.77646 3.710508-1.935072 4.248767-1.264806 4.247744-1.290389 4.894474-1.048889 4.678556-0.645706 5.541203-0.751107 5.968945-0.431835 1.586125-0.536212 0.322341 0 0.754177-0.644683 0-0.699941-1.076518-1.506307-3.199878-1.505283-7.958252-6.883781-5.324262-4.248767-6.185886-5.431709-6.239098-6.05081-6.508227-7.770987-7.421017-8.712429-2.796696-4.679579-3.711532-4.894474-3.173273-5.64558-2.850931-6.157233-3.873214-5.834892-2.52859-6.724145-2.984984-6.66684-2.984984-7.476275-2.205225-7.098675-2.043542-8.819876-0.644683-0.323365-0.6191 0-0.322341-0.645706-0.754177 0-1.263783 0.645706-0.645706 0.323365-0.858554 1.478677-0.323365 1.802042-0.644683 1.613754-1.12973 2.63399-3.657296 6.507204-1.882883 3.926426-2.984984 3.388167-3.199878 4.140297-3.496637 4.571109-3.710508 4.061502-4.357238 3.925403-4.059456 3.710508-4.437056 2.877537-4.894474 3.091408-4.678556 1.802042-5.539156 1.39886-5.431709 0.509606-0.537236 0-0.753153 0-1.237177-0.509606-0.969071-2.152013-1.612731-1.048889-2.097778-5.108345-1.290389-2.77009-1.39886-3.925403-1.156336-4.14132-0.6191-4.033873-1.721201-9.249665-0.644683-5.433756 0-5.538133 0-12.31549 0.644683-13.283538 1.076518-6.831592 1.263783-6.990205 1.156336-7.556093 2.043542-7.018857 2.312672-8.094352 2.366907-7.852852 3.174296-8.093329 2.984984-7.745405 4.113691-7.877411 3.873214-8.497535 4.678556-7.985882 5.51255-8.606005 5.621021-7.745405 5.862521-8.603959 4.894474-5.968945 6.265704-6.91141 6.589069-6.910387 3.065825-3.279696 3.736091-3.738138 5.406127-4.705162 5.54018-4.759397 9.03477-8.094352 6.830569-4.975315 2.420119-1.802042-1.344624-4.140297-1.075495-5.431709-0.753153-2.984984 0-3.738138 0-4.463662 0-4.03285 1.290389-4.787026 1.345648-5.109368 1.720178-5.297656 2.341325-5.942339 3.091408-6.184863 4.356214-6.184863 0-4.330632 0.429789-4.060479 0.645706-5.51255 1.88186-6.15621 1.721201-6.696516 1.37123-3.093455 1.586125-2.848884 2.043542-3.200902 2.205225-2.339278 0-4.356214 0-4.894474 0-6.076392 1.290389-7.852852 1.290389-9.143241 2.312672-10.970866 3.173273-11.348466 2.366907-6.290263 2.339278-6.803963 2.555196-6.372128 3.065825-6.80294 3.119037-7.448646 3.604084-6.990205 4.03285-7.476275 5.109368-7.42204 2.340301-4.247744 2.52859-3.523243 5.458315-7.878434 5.592368-7.851828 6.399757-8.067746 6.830569-7.906064 7.42204-7.743358 7.744381-7.959276 9.358135-8.604982 5.969968-5.216815 7.232728-5.646604 7.342222-5.001921 7.959276-4.786003 7.637957-4.248767 8.604982-3.495614 9.143241-4.356214 9.087982-2.984984 9.090029-3.092431 9.787924-3.065825 9.788947-2.339278 10.326183-1.909489 10.432607-1.721201 10.272971-1.370207 10.32516-1.39886 10.972912-0.6191 10.431583 0 10.812253 0 11.18576 0 10.812253 1.37123 10.862395 1.291412 11.078313 1.155313 10.273994 2.474354 10.863419 2.311649 10.19213 2.636037 11.160177 3.01159 10.219759 3.602038 9.7869 4.14132 10.434653 4.356214 9.5454 4.786003 9.250688 5.324262 9.0624 5.862521 7.851828 5.405103 3.604084 3.092431 3.820002 2.204202 7.259334 6.185886 6.132674 5.968945 6.076392 6.157233 5.969968 6.801916 4.894474 6.589069 5.808286 6.80294 4.088108 7.313569 4.113691 6.508227 4.383844 7.554046 3.603061 6.589069 6.131651 13.929244 3.010567 7.207146 2.341325 6.723122 2.339278 7.205099 2.097778 6.831592 1.506307 5.833869 1.88186 6.91141 3.334955 12.316513 2.124384 10.754948 1.370207 10.43363 1.183965 8.389064 1.883907 12.746302 0.429789 2.043542 1.505283 2.311649 4.034896 6.614651 2.579755 4.437056 2.313695 4.705162 2.957355 4.975315 2.580778 5.969968 1.666966 6.157233 1.828648 6.695492 1.39886 6.910387 0.645706 3.388167 0.537236 4.14132 0 3.629667-0.537236 3.63069 0 4.464685-1.076518 4.355191-1.934049 8.391111-2.206248 4.247744-1.611707 4.786003 0 1.182942 0.75213 1.480724 2.205225 3.521197 9.575076 14.144138 7.581676 10.595312 3.604084 7.15291 4.89345 7.743358 4.247744 8.498558 4.89652 9.141194 4.892427 10.219759 5.513574 11.588943 3.090385 7.126304 2.850931 6.883781 2.476401 7.367805 2.420119 6.560416 1.828648 6.939039 1.880837 6.480598 2.365884 12.664438 1.882883 12.961196 1.289366 11.45489L862.688057 644.674719z" p-id="2514"></path></svg>