<?xml version="1.0" standalone="no"?><!DOCTYPE svg PUBLIC "-//W3C//DTD SVG 1.1//EN" "http://www.w3.org/Graphics/SVG/1.1/DTD/svg11.dtd"><svg t="1603329686793" class="icon" viewBox="0 0 1024 1024" version="1.1" xmlns="http://www.w3.org/2000/svg" p-id="4835" xmlns:xlink="http://www.w3.org/1999/xlink" width="200" height="200"><defs><style type="text/css"></style></defs><path d="M512 0C228.92 0 0 228.92 0 512c0 282.358 228.92 512 512 512s512-228.92 512-512S794.358 0 512 0m174.037 706.257l-18.054 18.053c-10.11 10.11-25.997 10.11-36.107 0L465.783 558.217c-5.777-5.777-5.055-17.331-5.055-28.886V204.367c0-14.443 11.554-25.275 25.275-25.275h25.275c14.443 0 25.275 11.554 25.275 25.275v317.02L686.037 670.15c10.11 10.11 10.11 25.997 0 36.107m0 0z" p-id="4836"></path></svg>